<svg width="93" height="24" viewBox="0 0 93 24" fill="none" xmlns="http://www.w3.org/2000/svg">
<path d="M29.247 20.189C29.7497 20.189 30.233 19.9183 30.697 19.377L31.132 19.725C31.074 19.8023 30.9967 19.899 30.9 20.015C30.8033 20.131 30.5617 20.2857 30.175 20.479C29.8077 20.6723 29.4017 20.769 28.957 20.769C26.7917 20.769 25.709 19.8313 25.709 17.956C25.709 17.376 25.7767 16.5157 25.912 15.375C24.984 15.665 24.1527 15.81 23.418 15.81C22.1227 15.81 20.8273 15.4137 19.532 14.621C18.778 15.9163 18.0723 17.028 17.415 17.956C16.7577 18.8647 15.994 19.754 15.124 20.624C13.326 22.3833 11.151 23.263 8.599 23.263C6.06633 23.263 4.046 22.451 2.538 20.827C1.204 19.3383 0.537 17.5307 0.537 15.404C0.537 13.258 1.22333 11.3537 2.596 9.691C3.96867 8.02833 5.74733 7.197 7.932 7.197C10.1167 7.197 11.7793 7.84467 12.92 9.14C13.1907 9.488 13.384 9.749 13.5 9.923C14.544 10.3677 15.733 11.1023 17.067 12.127C18.0723 12.939 18.8167 13.4997 19.3 13.809C19.5707 13.3063 19.938 12.6297 20.402 11.779C20.8853 10.9283 21.2527 10.2807 21.504 9.836C21.7553 9.39133 22.1323 8.763 22.635 7.951C23.1377 7.139 23.5437 6.53 23.853 6.124C24.1817 5.69867 24.607 5.17667 25.129 4.558C25.6703 3.92 26.1633 3.44633 26.608 3.137C27.942 2.18967 29.0633 1.63867 29.972 1.484C30.4747 1.40667 30.9 1.368 31.248 1.368C31.596 1.368 31.9827 1.37767 32.408 1.397C32.8333 1.397 33.4327 1.50333 34.206 1.716L34.061 2.267C33.597 2.13167 33.104 2.035 32.582 1.977C30.6487 9.575 29.537 15.6457 29.247 20.189ZM14.428 13.287C14.428 14.7177 14.0123 15.984 13.181 17.086C12.369 18.188 11.267 18.739 9.875 18.739C8.96633 18.739 8.222 18.4683 7.642 17.927C7.08133 17.3857 6.801 16.825 6.801 16.245C6.801 15.665 6.888 15.1913 7.062 14.824C7.236 14.4373 7.42933 14.1473 7.642 13.954C7.874 13.7607 8.12533 13.606 8.396 13.49C8.76333 13.2967 9.05333 13.2 9.266 13.2L9.324 13.78C8.84067 13.78 8.396 14.012 7.99 14.476C7.584 14.94 7.381 15.462 7.381 16.042C7.381 16.622 7.60333 17.1247 8.048 17.55C8.512 17.956 9.121 18.159 9.875 18.159C11.1123 18.159 12.0887 17.6757 12.804 16.709C13.5193 15.7423 13.877 14.6693 13.877 13.49C13.877 12.3107 13.6353 11.286 13.152 10.416C12.0887 10.01 11.035 9.807 9.991 9.807C7.98033 9.807 6.55933 10.7447 5.728 12.62L5.177 12.446C5.38967 11.9627 5.728 11.4407 6.192 10.88C7.10067 9.778 8.367 9.227 9.991 9.227C10.861 9.227 11.7213 9.35267 12.572 9.604L12.514 9.517C11.4507 8.357 9.91367 7.777 7.903 7.777C5.91167 7.777 4.278 8.55033 3.002 10.097C1.74533 11.6437 1.117 13.4223 1.117 15.433C1.117 17.4243 1.73567 19.087 2.973 20.421C4.365 21.929 6.308 22.683 8.802 22.683C11.0833 22.683 13.0747 21.8227 14.776 20.102C15.6267 19.2707 16.3613 18.4103 16.98 17.521C17.618 16.6317 18.3043 15.5587 19.039 14.302C18.3817 13.8767 17.5793 13.2967 16.632 12.562C15.704 11.808 14.805 11.2087 13.935 10.764C14.2637 11.576 14.428 12.417 14.428 13.287ZM19.822 14.128C21.0593 14.8627 22.1903 15.23 23.215 15.23C24.259 15.23 25.187 15.0657 25.999 14.737C26.463 11.4697 27.333 7.40967 28.609 2.557C27.0623 3.29167 25.6413 4.59667 24.346 6.472C23.3987 7.82533 22.258 9.71033 20.924 12.127L19.822 14.128ZM34.218 8.763C34.798 8.067 35.523 7.719 36.393 7.719C37.2823 7.719 37.9687 7.94133 38.452 8.386C38.9353 8.83067 39.177 9.459 39.177 10.271V10.445C40.047 8.62767 41.178 7.719 42.57 7.719C44.0587 7.719 44.803 8.49233 44.803 10.039C44.803 10.677 44.5903 11.3537 44.165 12.069C43.7397 12.7843 43.3143 13.4707 42.889 14.128C42.4637 14.766 42.251 15.3363 42.251 15.839H41.555C41.555 15.1237 41.9707 14.157 42.802 12.939C43.6333 11.721 44.049 10.7833 44.049 10.126C44.049 9.44933 43.9137 8.995 43.643 8.763C43.3917 8.51167 43.005 8.386 42.483 8.386C41.9803 8.386 41.4777 8.60833 40.975 9.053C40.4917 9.49767 40.0857 10.0583 39.757 10.735C39.235 11.7403 38.887 12.562 38.713 13.2V13.229L37.669 19H34.189L36.103 8.299C35.523 8.357 35.0397 8.62767 34.653 9.111L34.218 8.763ZM52.3895 12.939C51.9835 12.533 51.7805 12.04 51.7805 11.46C51.7805 10.88 51.9835 10.387 52.3895 9.981C52.7955 9.55567 53.2885 9.343 53.8685 9.343C54.0425 9.343 54.2648 9.38167 54.5355 9.459C54.1681 8.78233 53.4818 8.444 52.4765 8.444C51.4711 8.444 50.5818 9.082 49.8085 10.358C49.0351 11.634 48.6485 13.5287 48.6485 16.042C48.6485 16.912 48.8418 17.5597 49.2285 17.985C49.6345 18.391 50.1371 18.594 50.7365 18.594C51.3358 18.594 51.8771 18.478 52.3605 18.246C52.8631 18.014 53.2595 17.7433 53.5495 17.434C53.8395 17.1053 54.0908 16.767 54.3035 16.419C54.6901 15.781 54.8835 15.375 54.8835 15.201L55.4055 15.433C55.3475 15.7423 55.1735 16.158 54.8835 16.68C54.5935 17.1827 54.2745 17.5983 53.9265 17.927C53.5785 18.2557 53.0661 18.565 52.3895 18.855C51.7128 19.1257 50.9588 19.261 50.1275 19.261C48.5615 19.261 47.3725 18.8937 46.5605 18.159C45.7678 17.405 45.3715 16.3803 45.3715 15.085C45.3715 12.7843 45.9418 10.9863 47.0825 9.691C48.2425 8.37633 49.8085 7.719 51.7805 7.719C53.1145 7.719 54.1391 8.05733 54.8545 8.734C55.5698 9.41067 55.9275 10.3 55.9275 11.402C55.9275 12.098 55.7148 12.6297 55.2895 12.997C54.8835 13.3643 54.4001 13.548 53.8395 13.548C53.2788 13.548 52.7955 13.345 52.3895 12.939ZM62.4604 17.956C62.209 18.2847 61.861 18.5843 61.4164 18.855C60.991 19.1257 60.4304 19.261 59.7344 19.261C59.0384 19.261 58.4487 19.0387 57.9654 18.594C57.482 18.1493 57.2404 17.521 57.2404 16.709C57.2404 16.5543 57.2597 16.303 57.2984 15.955L59.1834 5.515C59.5314 3.601 60.005 2.238 60.6044 1.426C61.223 0.614 62.035 0.208 63.0404 0.208C63.7364 0.208 64.3067 0.468999 64.7514 0.990999C65.2154 1.513 65.4474 2.30567 65.4474 3.369C65.4474 4.43233 65.0317 5.95 64.2004 7.922C63.3884 9.894 62.9824 11.3343 62.9824 12.243H62.4604C62.4604 11.2183 62.8664 9.75867 63.6784 7.864C64.4904 5.95 64.8964 4.42267 64.8964 3.282C64.8964 2.586 64.732 1.98667 64.4034 1.484C64.094 0.981332 63.7074 0.729998 63.2434 0.729998C63.224 1.23267 62.8857 3.49467 62.2284 7.516C61.5904 11.518 60.9524 15.2397 60.3144 18.681C60.8557 18.681 61.3584 18.4007 61.8224 17.84C62.2864 17.2793 62.615 16.7187 62.8084 16.158L63.1274 15.288L63.6494 15.52C63.5914 15.7907 63.4367 16.187 63.1854 16.709C62.9534 17.2117 62.7117 17.6273 62.4604 17.956ZM75.4617 19.261C73.7603 19.261 72.8323 18.5167 72.6777 17.028C71.827 18.5167 70.754 19.261 69.4587 19.261C68.1633 19.261 67.129 18.8743 66.3557 18.101C65.6017 17.3083 65.2247 16.2063 65.2247 14.795C65.2247 12.591 65.766 10.8607 66.8487 9.604C67.9313 8.34733 69.333 7.719 71.0537 7.719C72.465 7.719 73.4027 8.386 73.8667 9.72C73.9633 9.14 74.0697 8.56 74.1857 7.98C75.6163 7.98 76.6797 7.922 77.3757 7.806L77.7527 7.719L75.7517 18.681C76.3317 18.623 76.815 18.3523 77.2017 17.869L77.6367 18.217C77.0567 18.913 76.3317 19.261 75.4617 19.261ZM68.5017 16.274C68.5017 17.144 68.608 17.753 68.8207 18.101C69.0527 18.4297 69.4007 18.594 69.8647 18.594C70.3287 18.594 70.8023 18.3427 71.2857 17.84C71.9237 17.1827 72.436 16.3513 72.8227 15.346C72.8807 15.0947 72.987 14.4953 73.1417 13.548C73.3157 12.5813 73.4607 11.7887 73.5767 11.17C73.5187 10.4353 73.3157 9.79733 72.9677 9.256C72.6197 8.71467 72.1847 8.444 71.6627 8.444C70.7153 8.444 69.9517 9.29467 69.3717 10.996C68.7917 12.678 68.5017 14.4373 68.5017 16.274ZM90.4945 18.681C90.9585 18.681 91.4419 18.4103 91.9445 17.869L92.3795 18.217C92.2442 18.4877 91.9445 18.7293 91.4805 18.942C91.0165 19.1547 90.5042 19.261 89.9435 19.261C88.1842 19.261 87.3045 18.4683 87.3045 16.883C87.3045 16.2063 87.4785 14.998 87.8265 13.258C88.1745 11.518 88.3485 10.3773 88.3485 9.836C88.3485 9.00467 87.9522 8.589 87.1595 8.589C86.5215 8.589 85.9029 9.00467 85.3035 9.836C84.7235 10.6673 84.2402 11.808 83.8535 13.258L82.8675 18.681C83.4669 18.623 83.9599 18.3523 84.3465 17.869L84.7815 18.217C84.2015 18.913 83.4765 19.261 82.6065 19.261C81.7365 19.261 81.0502 19.0387 80.5475 18.594C80.0642 18.1493 79.8225 17.5693 79.8225 16.854C79.8225 16.5833 79.9772 15.52 80.2865 13.664L81.2435 8.299C80.6635 8.357 80.1802 8.62767 79.7935 9.111L79.3585 8.763C79.9385 8.067 80.6635 7.719 81.5335 7.719C82.4229 7.719 83.1092 7.94133 83.5925 8.386C84.0759 8.83067 84.3175 9.459 84.3175 10.271V10.445C85.1102 8.62767 86.3475 7.719 88.0295 7.719C89.1702 7.719 90.0595 8.04767 90.6975 8.705C91.3355 9.343 91.6545 10.2323 91.6545 11.373C91.6545 11.9723 91.4709 13.1323 91.1035 14.853C90.7362 16.5543 90.5332 17.8303 90.4945 18.681Z" fill="white"/>
</svg>
