<svg width="110" height="39" viewBox="0 0 110 39" fill="none" xmlns="http://www.w3.org/2000/svg">
<path d="M35.462 30.394C36.0513 30.394 36.618 30.0767 37.162 29.442L37.672 29.85C37.604 29.9407 37.5133 30.054 37.4 30.19C37.2867 30.326 37.0033 30.5073 36.55 30.734C36.1193 30.9607 35.6433 31.074 35.122 31.074C32.5833 31.074 31.314 29.9747 31.314 27.776C31.314 27.096 31.3933 26.0873 31.552 24.75C30.464 25.09 29.4893 25.26 28.628 25.26C27.1093 25.26 25.5907 24.7953 24.072 23.866C23.188 25.3847 22.3607 26.688 21.59 27.776C20.8193 28.8413 19.924 29.884 18.904 30.904C16.796 32.9667 14.246 33.998 11.254 33.998C8.28467 33.998 5.916 33.046 4.148 31.142C2.584 29.3967 1.802 27.2773 1.802 24.784C1.802 22.268 2.60667 20.0353 4.216 18.086C5.82533 16.1367 7.91067 15.162 10.472 15.162C13.0333 15.162 14.9827 15.9213 16.32 17.44C16.6373 17.848 16.864 18.154 17 18.358C18.224 18.8793 19.618 19.7407 21.182 20.942C22.3607 21.894 23.2333 22.5513 23.8 22.914C24.1173 22.3247 24.548 21.5313 25.092 20.534C25.6587 19.5367 26.0893 18.7773 26.384 18.256C26.6787 17.7347 27.1207 16.998 27.71 16.046C28.2993 15.094 28.7753 14.38 29.138 13.904C29.5233 13.4053 30.022 12.7933 30.634 12.068C31.2687 11.32 31.8467 10.7647 32.368 10.402C33.932 9.29133 35.2467 8.64533 36.312 8.464C36.9013 8.37333 37.4 8.328 37.808 8.328C38.216 8.328 38.6693 8.33933 39.168 8.362C39.6667 8.362 40.3693 8.48667 41.276 8.736L41.106 9.382C40.562 9.22333 39.984 9.11 39.372 9.042C37.1053 17.95 35.802 25.0673 35.462 30.394ZM18.088 22.302C18.088 23.9793 17.6007 25.464 16.626 26.756C15.674 28.048 14.382 28.694 12.75 28.694C11.6847 28.694 10.812 28.3767 10.132 27.742C9.47467 27.1073 9.146 26.45 9.146 25.77C9.146 25.09 9.248 24.5347 9.452 24.104C9.656 23.6507 9.88267 23.3107 10.132 23.084C10.404 22.8573 10.6987 22.676 11.016 22.54C11.4467 22.3133 11.7867 22.2 12.036 22.2L12.104 22.88C11.5373 22.88 11.016 23.152 10.54 23.696C10.064 24.24 9.826 24.852 9.826 25.532C9.826 26.212 10.0867 26.8013 10.608 27.3C11.152 27.776 11.866 28.014 12.75 28.014C14.2007 28.014 15.3453 27.4473 16.184 26.314C17.0227 25.1807 17.442 23.9227 17.442 22.54C17.442 21.1573 17.1587 19.956 16.592 18.936C15.3453 18.46 14.11 18.222 12.886 18.222C10.5287 18.222 8.86267 19.3213 7.888 21.52L7.242 21.316C7.49133 20.7493 7.888 20.1373 8.432 19.48C9.49733 18.188 10.982 17.542 12.886 17.542C13.906 17.542 14.9147 17.6893 15.912 17.984L15.844 17.882C14.5973 16.522 12.7953 15.842 10.438 15.842C8.10333 15.842 6.188 16.7487 4.692 18.562C3.21867 20.3753 2.482 22.4607 2.482 24.818C2.482 27.1527 3.20733 29.102 4.658 30.666C6.29 32.434 8.568 33.318 11.492 33.318C14.1667 33.318 16.5013 32.3093 18.496 30.292C19.4933 29.3173 20.3547 28.3087 21.08 27.266C21.828 26.2233 22.6327 24.9653 23.494 23.492C22.7233 22.9933 21.7827 22.3133 20.672 21.452C19.584 20.568 18.53 19.8653 17.51 19.344C17.8953 20.296 18.088 21.282 18.088 22.302ZM24.412 23.288C25.8627 24.1493 27.1887 24.58 28.39 24.58C29.614 24.58 30.702 24.3873 31.654 24.002C32.198 20.1713 33.218 15.4113 34.714 9.722C32.9007 10.5833 31.2347 12.1133 29.716 14.312C28.6053 15.8987 27.268 18.1087 25.704 20.942L24.412 23.288ZM41.2901 16.998C41.9701 16.182 42.8201 15.774 43.8401 15.774C44.8827 15.774 45.6874 16.0347 46.2541 16.556C46.8207 17.0773 47.1041 17.814 47.1041 18.766V18.97C48.1241 16.8393 49.4501 15.774 51.0821 15.774C52.8274 15.774 53.7001 16.6807 53.7001 18.494C53.7001 19.242 53.4507 20.0353 52.9521 20.874C52.4534 21.7127 51.9547 22.5173 51.4561 23.288C50.9574 24.036 50.7081 24.7047 50.7081 25.294H49.8921C49.8921 24.4553 50.3794 23.322 51.3541 21.894C52.3287 20.466 52.8161 19.3667 52.8161 18.596C52.8161 17.8027 52.6574 17.27 52.3401 16.998C52.0454 16.7033 51.5921 16.556 50.9801 16.556C50.3907 16.556 49.8014 16.8167 49.2121 17.338C48.6454 17.8593 48.1694 18.5167 47.7841 19.31C47.1721 20.4887 46.7641 21.452 46.5601 22.2V22.234L45.3361 29H41.2561L43.5001 16.454C42.8201 16.522 42.2534 16.8393 41.8001 17.406L41.2901 16.998ZM62.5945 21.894C62.1185 21.418 61.8805 20.84 61.8805 20.16C61.8805 19.48 62.1185 18.902 62.5945 18.426C63.0705 17.9273 63.6485 17.678 64.3285 17.678C64.5325 17.678 64.7932 17.7233 65.1105 17.814C64.6799 17.0207 63.8752 16.624 62.6965 16.624C61.5179 16.624 60.4752 17.372 59.5685 18.868C58.6619 20.364 58.2085 22.5853 58.2085 25.532C58.2085 26.552 58.4352 27.3113 58.8885 27.81C59.3645 28.286 59.9539 28.524 60.6565 28.524C61.3592 28.524 61.9939 28.388 62.5605 28.116C63.1499 27.844 63.6145 27.5267 63.9545 27.164C64.2945 26.7787 64.5892 26.382 64.8385 25.974C65.2919 25.226 65.5185 24.75 65.5185 24.546L66.1305 24.818C66.0625 25.1807 65.8585 25.668 65.5185 26.28C65.1785 26.8693 64.8045 27.3567 64.3965 27.742C63.9885 28.1273 63.3879 28.49 62.5945 28.83C61.8012 29.1473 60.9172 29.306 59.9425 29.306C58.1065 29.306 56.7125 28.8753 55.7605 28.014C54.8312 27.13 54.3665 25.9287 54.3665 24.41C54.3665 21.7127 55.0352 19.6047 56.3725 18.086C57.7325 16.5447 59.5685 15.774 61.8805 15.774C63.4445 15.774 64.6459 16.1707 65.4845 16.964C66.3232 17.7573 66.7425 18.8 66.7425 20.092C66.7425 20.908 66.4932 21.5313 65.9945 21.962C65.5185 22.3927 64.9519 22.608 64.2945 22.608C63.6372 22.608 63.0705 22.37 62.5945 21.894ZM74.4018 27.776C74.1072 28.1613 73.6992 28.5127 73.1778 28.83C72.6792 29.1473 72.0218 29.306 71.2058 29.306C70.3898 29.306 69.6985 29.0453 69.1318 28.524C68.5652 28.0027 68.2818 27.266 68.2818 26.314C68.2818 26.1327 68.3045 25.838 68.3498 25.43L70.5598 13.19C70.9678 10.946 71.5232 9.348 72.2258 8.396C72.9512 7.444 73.9032 6.968 75.0818 6.968C75.8978 6.968 76.5665 7.274 77.0878 7.886C77.6318 8.498 77.9038 9.42733 77.9038 10.674C77.9038 11.9207 77.4165 13.7 76.4418 16.012C75.4898 18.324 75.0138 20.0127 75.0138 21.078H74.4018C74.4018 19.8767 74.8778 18.1653 75.8298 15.944C76.7818 13.7 77.2578 11.9093 77.2578 10.572C77.2578 9.756 77.0652 9.05333 76.6798 8.464C76.3172 7.87467 75.8638 7.58 75.3198 7.58C75.2972 8.16933 74.9005 10.8213 74.1298 15.536C73.3818 20.228 72.6338 24.5913 71.8858 28.626C72.5205 28.626 73.1098 28.2973 73.6538 27.64C74.1978 26.9827 74.5832 26.3253 74.8098 25.668L75.1838 24.648L75.7958 24.92C75.7278 25.2373 75.5465 25.702 75.2518 26.314C74.9798 26.9033 74.6965 27.3907 74.4018 27.776ZM89.6447 29.306C87.6501 29.306 86.5621 28.4333 86.3807 26.688C85.3834 28.4333 84.1254 29.306 82.6067 29.306C81.0881 29.306 79.8754 28.8527 78.9687 27.946C78.0847 27.0167 77.6427 25.7247 77.6427 24.07C77.6427 21.486 78.2774 19.4573 79.5467 17.984C80.8161 16.5107 82.4594 15.774 84.4767 15.774C86.1314 15.774 87.2307 16.556 87.7747 18.12C87.8881 17.44 88.0127 16.76 88.1487 16.08C89.8261 16.08 91.0727 16.012 91.8887 15.876L92.3307 15.774L89.9847 28.626C90.6647 28.558 91.2314 28.2407 91.6847 27.674L92.1947 28.082C91.5147 28.898 90.6647 29.306 89.6447 29.306ZM81.4847 25.804C81.4847 26.824 81.6094 27.538 81.8587 27.946C82.1307 28.3313 82.5387 28.524 83.0827 28.524C83.6267 28.524 84.1821 28.2293 84.7487 27.64C85.4967 26.8693 86.0974 25.8947 86.5507 24.716C86.6187 24.4213 86.7434 23.7187 86.9247 22.608C87.1287 21.4747 87.2987 20.5453 87.4347 19.82C87.3667 18.9587 87.1287 18.2107 86.7207 17.576C86.3127 16.9413 85.8027 16.624 85.1907 16.624C84.0801 16.624 83.1847 17.6213 82.5047 19.616C81.8247 21.588 81.4847 23.6507 81.4847 25.804ZM107.269 28.626C107.813 28.626 108.38 28.3087 108.969 27.674L109.479 28.082C109.321 28.3993 108.969 28.6827 108.425 28.932C107.881 29.1813 107.281 29.306 106.623 29.306C104.561 29.306 103.529 28.3767 103.529 26.518C103.529 25.7247 103.733 24.308 104.141 22.268C104.549 20.228 104.753 18.8907 104.753 18.256C104.753 17.2813 104.289 16.794 103.359 16.794C102.611 16.794 101.886 17.2813 101.183 18.256C100.503 19.2307 99.9368 20.568 99.4835 22.268L98.3275 28.626C99.0301 28.558 99.6081 28.2407 100.061 27.674L100.571 28.082C99.8915 28.898 99.0415 29.306 98.0215 29.306C97.0015 29.306 96.1968 29.0453 95.6075 28.524C95.0408 28.0027 94.7575 27.3227 94.7575 26.484C94.7575 26.1667 94.9388 24.92 95.3015 22.744L96.4235 16.454C95.7435 16.522 95.1768 16.8393 94.7235 17.406L94.2135 16.998C94.8935 16.182 95.7435 15.774 96.7635 15.774C97.8061 15.774 98.6108 16.0347 99.1775 16.556C99.7441 17.0773 100.027 17.814 100.027 18.766V18.97C100.957 16.8393 102.407 15.774 104.379 15.774C105.717 15.774 106.759 16.1593 107.507 16.93C108.255 17.678 108.629 18.7207 108.629 20.058C108.629 20.7607 108.414 22.1207 107.983 24.138C107.553 26.1327 107.315 27.6287 107.269 28.626Z" fill="black"/>
</svg>
